<?xml version="1.0" standalone="no"?>
<!DOCTYPE svg PUBLIC "-//W3C//DTD SVG 20010904//EN"
 "http://www.w3.org/TR/2001/REC-SVG-20010904/DTD/svg10.dtd">
<svg version="1.0" xmlns="http://www.w3.org/2000/svg"
 width="523.000000pt" height="81.000000pt" viewBox="0 0 523.000000 81.000000"
 preserveAspectRatio="xMidYMid meet">

<g transform="translate(0.000000,81.000000) scale(0.100000,-0.100000)"
fill="#000000" stroke="none">
<path d="M86 797 c-21 -7 -48 -25 -60 -40 -20 -27 -21 -41 -24 -337 -3 -344 0
-363 60 -400 31 -19 50 -20 274 -20 l241 0 -7 41 c-9 49 -42 86 -89 99 -20 5
-91 10 -159 10 -117 0 -124 1 -147 25 -25 24 -25 25 -25 225 0 112 4 209 10
220 16 30 66 40 200 40 116 0 130 2 161 23 25 17 37 34 45 67 6 25 9 48 7 53
-7 12 -443 7 -487 -6z"/>
<path d="M736 800 c-52 -10 -93 -55 -101 -112 -3 -24 -5 -167 -3 -318 4 -386
-8 -370 293 -370 158 0 202 3 226 16 56 28 59 52 59 392 0 305 0 309 -23 343
-16 25 -35 37 -67 46 -50 13 -322 15 -384 3z m307 -153 c16 -11 17 -35 15
-252 l-3 -240 -130 0 -130 0 -3 247 c-2 229 -1 247 15 251 42 11 220 7 236 -6z"/>
<path d="M1385 803 c-45 -10 -75 -26 -92 -52 -16 -23 -18 -57 -21 -326 -4
-321 0 -355 44 -396 26 -24 26 -24 281 -27 l255 -3 -7 33 c-9 43 -29 74 -62
95 -20 13 -57 18 -174 23 -124 4 -151 8 -166 23 -16 16 -18 46 -21 327 -2 171
-6 309 -10 309 -4 -1 -16 -3 -27 -6z"/>
<path d="M2007 801 c-49 -10 -86 -47 -97 -97 -5 -21 -10 -189 -10 -371 l0
-333 30 0 c17 0 44 7 60 15 49 25 63 66 68 193 l5 113 131 -3 131 -3 3 -157 3
-158 25 0 c14 0 42 8 61 17 60 28 63 45 63 390 0 416 13 396 -260 399 -96 2
-192 -1 -213 -5z m304 -151 c16 -9 19 -22 19 -86 0 -71 -1 -75 -26 -84 -33
-13 -185 -13 -218 0 -25 9 -26 13 -26 84 0 61 3 77 18 85 22 14 208 14 233 1z"/>
<path d="M2540 790 c0 -31 24 -82 50 -105 19 -18 41 -21 175 -25 168 -6 187
-12 199 -70 7 -36 -10 -87 -34 -100 -10 -6 -86 -10 -169 -10 -145 0 -151 -1
-151 -20 0 -31 24 -82 49 -105 19 -16 43 -20 141 -25 132 -7 153 -16 164 -71
8 -41 -17 -97 -46 -103 -13 -3 -81 -7 -153 -9 -171 -5 -204 -21 -220 -111 l-7
-36 244 0 c239 0 246 1 279 23 48 32 61 80 57 198 -4 110 -19 142 -75 166
l-36 15 40 18 c58 26 77 78 71 203 -4 102 -16 132 -65 164 -24 16 -58 18 -270
21 -242 4 -243 3 -243 -18z"/>
<path d="M3182 528 c20 -89 69 -108 284 -108 l135 0 -3 -27 -3 -28 -170 -5
c-111 -3 -178 -9 -192 -18 -44 -25 -57 -67 -61 -209 l-4 -133 31 0 c75 0 121
52 121 137 0 26 4 54 8 61 7 9 41 12 138 10 l129 -3 3 -102 3 -103 30 0 c81 0
123 57 117 158 -4 58 -8 68 -36 93 -18 16 -42 29 -54 29 -16 0 -10 6 22 23 59
29 72 56 68 141 -4 63 -7 71 -36 97 l-32 29 -254 0 -254 0 10 -42z"/>
<path d="M3870 555 c-50 -27 -55 -51 -55 -271 0 -190 1 -204 21 -231 37 -49
54 -53 267 -53 291 0 287 -4 287 284 0 292 6 286 -292 286 -153 -1 -209 -4
-228 -15z m365 -270 l0 -130 -129 -3 c-97 -2 -131 1 -138 10 -9 16 -11 242 -1
252 4 3 66 5 137 4 l131 -3 0 -130z"/>
<path d="M4450 550 c0 -40 28 -89 62 -106 26 -14 66 -19 196 -22 l162 -4 0
-133 0 -133 -167 -4 c-112 -2 -176 -8 -191 -16 -31 -17 -62 -70 -62 -104 l0
-28 243 0 c260 0 273 3 311 53 19 26 21 45 24 194 5 213 0 247 -43 290 l-33
33 -251 0 c-246 0 -251 0 -251 -20z"/>
<path d="M5126 538 c-24 -24 -35 -46 -40 -81 -4 -27 -5 -51 -2 -54 12 -12 79
10 108 36 25 22 32 37 36 79 l5 52 -38 0 c-28 0 -44 -7 -69 -32z"/>
<path d="M5176 370 c-40 -13 -74 -47 -86 -89 -5 -20 -10 -91 -10 -158 l0 -123
30 0 c17 0 45 7 61 16 48 25 59 65 59 224 0 150 2 146 -54 130z"/>
</g>
</svg>
